<?xml version="1.0" encoding="UTF-8" standalone="no"?>
<svg
   xmlns:dc="http://purl.org/dc/elements/1.1/"
   xmlns:cc="http://creativecommons.org/ns#"
   xmlns:rdf="http://www.w3.org/1999/02/22-rdf-syntax-ns#"
   xmlns:svg="http://www.w3.org/2000/svg"
   xmlns="http://www.w3.org/2000/svg"
   xmlns:sodipodi="http://sodipodi.sourceforge.net/DTD/sodipodi-0.dtd"
   xmlns:inkscape="http://www.inkscape.org/namespaces/inkscape"
   width="1000"
   height="200"
   viewBox="0 0 264.58334 52.916665"
   version="1.1"
   id="svg177"
   inkscape:version="1.0.1 (0767f8302a, 2020-10-17)"
   sodipodi:docname="main.svg"
   inkscape:export-filename="/home/iago/Drive/Audiovisual Projects/Cinephix/name/main.png"
   inkscape:export-xdpi="135.22313"
   inkscape:export-ydpi="135.22313">
  <defs
     id="defs171">
    <inkscape:path-effect
       effect="envelope"
       id="path-effect1185"
       is_visible="true"
       lpeversion="1"
       yy="true"
       xx="true"
       bendpath1="m 1145.2681,44.199876 h 483.3593"
       bendpath2="M 1628.6274,44.199876 V 123.5748"
       bendpath3="m 1145.2681,123.5748 c 163.4124,-17.56544 324.2287,-15.45877 483.3593,0"
       bendpath4="M 1145.2681,44.199876 V 123.5748"
       bendpath3-nodetypes="cc" />
    <inkscape:path-effect
       effect="envelope"
       id="path-effect1160"
       is_visible="true"
       lpeversion="1"
       yy="true"
       xx="true"
       bendpath1="m 1145.2681,44.199876 h 483.3593"
       bendpath2="M 1628.6274,44.199876 V 123.5748"
       bendpath3="m 1145.2681,123.5748 c 163.4124,-17.56544 324.2287,-15.45877 483.3593,0"
       bendpath4="M 1145.2681,44.199876 V 123.5748"
       bendpath3-nodetypes="cc" />
    <inkscape:path-effect
       effect="envelope"
       id="path-effect1135"
       is_visible="true"
       lpeversion="1"
       yy="true"
       xx="true"
       bendpath1="m 1145.2681,44.199876 h 483.3593"
       bendpath2="M 1628.6274,44.199876 V 123.5748"
       bendpath3="m 1145.2681,123.5748 c 163.4124,-17.56544 324.2287,-15.45877 483.3593,0"
       bendpath4="M 1145.2681,44.199876 V 123.5748"
       bendpath3-nodetypes="cc" />
    <inkscape:path-effect
       effect="envelope"
       id="path-effect1110"
       is_visible="true"
       lpeversion="1"
       yy="true"
       xx="true"
       bendpath1="m 1145.2681,44.199876 h 483.3593"
       bendpath2="M 1628.6274,44.199876 V 123.5748"
       bendpath3="m 1145.2681,123.5748 c 163.4124,-17.56544 324.2287,-15.45877 483.3593,0"
       bendpath4="M 1145.2681,44.199876 V 123.5748"
       bendpath3-nodetypes="cc" />
    <inkscape:path-effect
       effect="envelope"
       id="path-effect1085"
       is_visible="true"
       lpeversion="1"
       yy="true"
       xx="true"
       bendpath1="m 1145.2681,44.199876 h 483.3593"
       bendpath2="M 1628.6274,44.199876 V 123.5748"
       bendpath3="m 1145.2681,123.5748 c 163.4124,-17.56544 324.2287,-15.45877 483.3593,0"
       bendpath4="M 1145.2681,44.199876 V 123.5748"
       bendpath3-nodetypes="cc" />
    <inkscape:path-effect
       effect="envelope"
       id="path-effect1060"
       is_visible="true"
       lpeversion="1"
       yy="true"
       xx="true"
       bendpath1="m 1145.2681,44.199876 h 483.3593"
       bendpath2="M 1628.6274,44.199876 V 123.5748"
       bendpath3="m 1145.2681,123.5748 c 163.4124,-17.56544 324.2287,-15.45877 483.3593,0"
       bendpath4="M 1145.2681,44.199876 V 123.5748"
       bendpath3-nodetypes="cc" />
    <inkscape:path-effect
       effect="envelope"
       id="path-effect1017"
       is_visible="true"
       lpeversion="1"
       yy="true"
       xx="true"
       bendpath1="m 1145.2681,44.199876 h 483.3593"
       bendpath2="M 1628.6274,44.199876 V 123.5748"
       bendpath3="m 1145.2681,123.5748 c 163.4124,-17.56544 324.2287,-15.45877 483.3593,0"
       bendpath4="M 1145.2681,44.199876 V 123.5748"
       bendpath3-nodetypes="cc" />
    <inkscape:path-effect
       effect="envelope"
       id="path-effect974"
       is_visible="true"
       lpeversion="1"
       yy="true"
       xx="true"
       bendpath1="m 1145.2681,44.199876 h 483.3593"
       bendpath2="M 1628.6274,44.199876 V 123.5748"
       bendpath3="m 1145.2681,123.5748 c 163.4124,-17.56544 324.2287,-15.45877 483.3593,0"
       bendpath4="M 1145.2681,44.199876 V 123.5748"
       bendpath3-nodetypes="cc" />
    <inkscape:path-effect
       effect="envelope"
       id="path-effect949"
       is_visible="true"
       lpeversion="1"
       yy="true"
       xx="true"
       bendpath1="m 1145.2681,44.199876 h 483.3593"
       bendpath2="M 1628.6274,44.199876 V 123.5748"
       bendpath3="m 1145.2681,123.5748 c 163.4124,-17.56544 324.2287,-15.45877 483.3593,0"
       bendpath4="M 1145.2681,44.199876 V 123.5748"
       bendpath3-nodetypes="cc" />
    <inkscape:path-effect
       effect="envelope"
       id="path-effect924"
       is_visible="true"
       lpeversion="1"
       yy="true"
       xx="true"
       bendpath1="m 1145.2681,44.199876 h 483.3593"
       bendpath2="M 1628.6274,44.199876 V 123.5748"
       bendpath3="m 1145.2681,123.5748 c 163.4124,-17.56544 324.2287,-15.45877 483.3593,0"
       bendpath4="M 1145.2681,44.199876 V 123.5748"
       bendpath3-nodetypes="cc" />
    <inkscape:path-effect
       effect="envelope"
       id="path-effect881"
       is_visible="true"
       lpeversion="1"
       yy="true"
       xx="true"
       bendpath1="m 1145.2681,44.199876 h 483.3593"
       bendpath2="M 1628.6274,44.199876 V 123.5748"
       bendpath3="m 1145.2681,123.5748 c 163.4124,-17.56544 324.2287,-15.45877 483.3593,0"
       bendpath4="M 1145.2681,44.199876 V 123.5748"
       bendpath3-nodetypes="cc" />
    <inkscape:path-effect
       effect="envelope"
       id="path-effect74"
       is_visible="true"
       lpeversion="1"
       yy="true"
       xx="true"
       bendpath1="m 1145.2681,44.199876 h 483.3593"
       bendpath2="M 1628.6274,44.199876 V 123.5748"
       bendpath3="m 1145.2681,123.5748 c 163.4124,-17.56544 324.2287,-15.45877 483.3593,0"
       bendpath4="M 1145.2681,44.199876 V 123.5748"
       bendpath3-nodetypes="cc" />
  </defs>
  <sodipodi:namedview
     id="base"
     pagecolor="#161c50"
     bordercolor="#666666"
     borderopacity="1.0"
     inkscape:pageopacity="1"
     inkscape:pageshadow="2"
     inkscape:zoom="0.90509668"
     inkscape:cx="528.04657"
     inkscape:cy="162.49891"
     inkscape:document-units="px"
     inkscape:current-layer="layer1"
     inkscape:document-rotation="0"
     showgrid="false"
     borderlayer="true"
     units="px"
     inkscape:window-width="1366"
     inkscape:window-height="704"
     inkscape:window-x="0"
     inkscape:window-y="0"
     inkscape:window-maximized="1" />
  <metadata
     id="metadata174">
    <rdf:RDF>
      <cc:Work
         rdf:about="">
        <dc:format>image/svg+xml</dc:format>
        <dc:type
           rdf:resource="http://purl.org/dc/dcmitype/StillImage" />
        <dc:title></dc:title>
      </cc:Work>
    </rdf:RDF>
  </metadata>
  <g
     inkscape:label="Layer 1"
     inkscape:groupmode="layer"
     id="layer1"
     transform="translate(155.86893,-186.99048)">
    <g
       id="g55"
       transform="translate(-8.7630693,-6.147302)">
      <g
         aria-label="CINEPHIX"
         id="text903-3-8"
         style="font-style:normal;font-variant:normal;font-weight:normal;font-stretch:normal;font-size:108.663px;line-height:1.25;font-family:Roboto;-inkscape-font-specification:Roboto;letter-spacing:0px;fill:#23232a;fill-opacity:1;stroke:none;stroke-width:2.41703;stroke-linecap:round;stroke-linejoin:round;stroke-miterlimit:4;stroke-dasharray:none;stroke-opacity:1;paint-order:normal"
         inkscape:path-effect="#path-effect1135"
         transform="matrix(0.54733192,0,0,0.54733192,-773.32403,174.00983)">
        <path
           d="m 1206.6933,95.712284 c -0.6477,7.906656 -3.7466,13.824726 -9.1789,18.279696 -5.3398,4.40591 -12.5965,7.03481 -21.5692,7.64663 -9.9107,0.67577 -17.8585,-1.85891 -23.6205,-8.2773 -5.7216,-6.4488 -8.2296,-15.625429 -8.195,-27.29031 0,-1.580006 0,-3.142879 0,-4.722056 -0.026,-7.42604 1.1332,-13.960713 3.6789,-19.629161 2.5504,-5.679059 6.294,-10.012207 11.244,-13.02835 4.9757,-3.044854 10.7388,-4.53506 17.174,-4.534812 8.9038,3.42e-4 15.9464,2.319535 21.2507,6.938465 5.3068,4.621059 8.4556,11.224527 9.3396,19.814135 0.6322,-0.0084 -16.5034,0.206164 -15.8713,0.197758 -0.418,-4.979908 -1.8269,-8.565666 -4.2267,-10.762986 -2.3644,-2.232845 -5.9753,-3.328414 -10.8468,-3.294136 -5.2953,0.03726 -9.276,1.963901 -11.8901,5.804613 -2.5928,3.825255 -3.8129,9.692352 -3.8548,17.713332 0.01,1.957491 0.01,3.877456 0,5.830147 -0.024,8.354753 1.0993,14.321391 3.5817,18.053121 2.506,3.71374 6.4908,5.41012 11.9256,5.21509 4.8939,-0.17562 8.5584,-1.36328 10.9514,-3.52069 2.4346,-2.19727 3.8533,-5.51101 4.2395,-10.048557 5.2811,-0.118372 10.5792,-0.248098 15.8669,-0.384629 z"
           style="font-style:normal;font-variant:normal;font-weight:bold;font-stretch:normal;font-family:Roboto;-inkscape-font-specification:'Roboto Bold';fill:#23232a;fill-opacity:1;stroke:none;stroke-width:2.41703;stroke-linecap:round;stroke-linejoin:round;stroke-miterlimit:4;stroke-dasharray:none;stroke-opacity:1;paint-order:normal"
           id="path57-6-4"
           inkscape:original-d="m 1208.248,96.78046 q -0.9019,12.46865 -9.2321,19.6315 -8.277,7.16284 -21.8599,7.16284 -14.8563,0 -23.3986,-9.97492 -8.4893,-10.02798 -8.4893,-27.4841 v -4.722171 q 0,-11.142202 3.9263,-19.6315 3.9263,-8.489297 11.1952,-12.999236 7.3221,-4.562997 16.9786,-4.562997 13.3707,0 21.5416,7.162845 8.171,7.162844 9.4444,20.109022 h -15.9175 q -0.5836,-7.481193 -4.1916,-10.823854 -3.5549,-3.395719 -10.8769,-3.395719 -7.9587,0 -11.938,5.730276 -3.9263,5.677217 -4.0325,17.668349 v 5.836392 q 0,12.521713 3.7672,18.305043 3.8201,5.78334 11.9911,5.78334 7.3751,0 10.983,-3.34266 3.661,-3.39572 4.1916,-10.45245 z" />
        <path
           d="m 1234.2759,116.63516 c -1.2155,0.0841 -14.6858,1.03073 -15.9013,1.11486 -0.2489,-4.49697 -0.3364,-63.932634 0.1341,-72.592583 -2.6099,0.0024 18.5295,-0.0172 15.9197,-0.01477 -0.5079,9.599487 -0.4113,66.741903 -0.1525,71.492483 z"
           style="font-style:normal;font-variant:normal;font-weight:bold;font-stretch:normal;font-family:Roboto;-inkscape-font-specification:'Roboto Bold';fill:#23232a;fill-opacity:1;stroke:none;stroke-width:2.41703;stroke-linecap:round;stroke-linejoin:round;stroke-miterlimit:4;stroke-dasharray:none;stroke-opacity:1;paint-order:normal"
           id="path59-7-31"
           inkscape:original-d="m 1235.626,122.51364 h -15.9174 V 45.261038 h 15.9174 z" />
        <path
           d="m 1311.8097,112.16128 c -5.3146,0.22026 -10.6204,0.4621 -15.933,0.72399 -10.3104,-9.52526 -21.1665,-26.722972 -31.194,-42.602919 -4e-4,11.964476 -0.1418,37.523529 0.1954,44.334909 -5.3106,0.32793 -10.6058,0.66887 -15.9142,1.02091 -0.2554,-4.8507 -0.3558,-60.242836 0.1646,-70.50872 -0.4583,4.03e-4 16.3797,-0.01396 15.9215,-0.01356 6.7617,10.774401 23.483,37.400357 30.7101,47.678046 0.022,-10.371455 -0.057,-37.314088 0.3386,-47.701116 -0.1479,9.7e-5 16.018,-0.0097 15.8702,-0.0096 -0.3754,11.644747 -0.3088,62.56536 -0.1592,67.07807 z"
           style="font-style:normal;font-variant:normal;font-weight:bold;font-stretch:normal;font-family:Roboto;-inkscape-font-specification:'Roboto Bold';fill:#23232a;fill-opacity:1;stroke:none;stroke-width:2.41703;stroke-linecap:round;stroke-linejoin:round;stroke-miterlimit:4;stroke-dasharray:none;stroke-opacity:1;paint-order:normal"
           id="path61-5-49"
           inkscape:original-d="m 1313.1439,122.51364 h -15.9174 l -30.9859,-50.829665 v 50.829665 h -15.9175 V 45.261038 h 15.9175 l 31.0389,50.935783 V 45.261038 h 15.8644 z" />
        <path
           d="m 1372.4245,85.471285 c -10.2563,0.02848 -20.4465,0.09449 -30.6986,0.195999 -0.01,5.569425 -0.021,12.756086 -0.013,17.145986 12.0328,-0.20706 23.9835,-0.32693 36.021,-0.3557 -5e-4,0.25301 -0.019,7.94652 -0.02,8.19953 -17.3693,0.0551 -34.5201,0.38629 -51.8785,0.97507 -0.1138,-4.31579 -0.163,-54.876474 0.1465,-66.556019 -0.4535,2.06e-4 52.154,-0.01329 51.7005,-0.01309 0,0.576113 -0.017,10.937015 -0.019,11.513128 -11.9927,0.0065 -23.8993,0.03246 -35.8895,0.07704 -0.03,5.443668 -0.034,11.875284 -0.038,17.427297 10.251,-0.07414 20.4404,-0.122352 30.6952,-0.143166 9e-4,-1.921982 -0.01,13.455897 -0.01,11.533916 z"
           style="font-style:normal;font-variant:normal;font-weight:bold;font-stretch:normal;font-family:Roboto;-inkscape-font-specification:'Roboto Bold';fill:#23232a;fill-opacity:1;stroke:none;stroke-width:2.41703;stroke-linecap:round;stroke-linejoin:round;stroke-miterlimit:4;stroke-dasharray:none;stroke-opacity:1;paint-order:normal"
           id="path63-3-20"
           inkscape:original-d="m 1373.6302,89.033976 h -30.5615 v 20.692664 h 35.8673 v 12.787 h -51.7847 V 45.261038 h 51.6786 v 12.89312 h -35.7612 v 18.411163 h 30.5615 z" />
        <path
           d="m 1403.1254,91.014396 c -0.01,7.604479 -0.017,14.920834 -0.1028,19.757724 -5.3189,-0.0649 -10.6321,-0.10436 -15.9511,-0.11792 0.07,-8.25795 0.091,-49.578536 0.059,-65.591204 0.1265,4e-6 30.0233,0.0046 30.1499,0.0046 5.7903,0.0016 10.9286,0.907169 15.3421,2.783751 4.4629,1.882556 7.9034,4.610857 10.3117,8.283566 2.4065,3.637302 3.6077,7.871819 3.6119,12.649166 0.01,7.268582 -2.6085,12.858653 -7.8239,16.778407 -5.1677,3.879059 -12.3919,5.638149 -21.5789,5.55398 -4.6742,-0.04282 -9.3431,-0.07694 -14.0181,-0.102067 z m 0,-11.58669 c 4.7633,0.01829 9.5199,0.04331 14.2822,0.07482 4.2259,0.02796 7.4431,-0.865813 9.6437,-2.711989 2.2371,-1.846702 3.3565,-4.521025 3.3541,-8.029619 0,-3.610297 -1.127,-6.520679 -3.3715,-8.727423 -2.2422,-2.204583 -5.3406,-3.329429 -9.2783,-3.406917 0.048,1.45e-4 -14.6904,-0.03509 -14.6424,-0.03495 0.017,6.698145 0.014,16.113541 0.012,22.836077 z"
           style="font-style:normal;font-variant:normal;font-weight:bold;font-stretch:normal;font-family:Roboto;-inkscape-font-specification:'Roboto Bold';fill:#23232a;fill-opacity:1;stroke:none;stroke-width:2.41703;stroke-linecap:round;stroke-linejoin:round;stroke-miterlimit:4;stroke-dasharray:none;stroke-opacity:1;paint-order:normal"
           id="path65-5-6"
           inkscape:original-d="m 1404.1916,95.294833 v 27.218807 h -15.9174 V 45.261038 h 30.137 q 8.7015,0 15.2807,3.183487 6.6323,3.183486 10.1872,9.072936 3.5549,5.836392 3.5549,13.317585 0,11.354434 -7.7996,17.93364 -7.7464,6.526147 -21.4885,6.526147 z m 0,-12.89312 h 14.2196 q 6.3139,0 9.6035,-2.971254 3.3427,-2.971254 3.3427,-8.489297 0,-5.677218 -3.3427,-9.179053 -3.3426,-3.501835 -9.2321,-3.607951 h -14.591 z" />
        <path
           d="m 1520.1844,115.71322 c -5.3117,-0.34203 -10.6117,-0.67473 -15.9254,-0.99609 0.3645,-6.75914 0.2838,-17.789408 0.2692,-27.399366 -10.4022,-0.226451 -20.6791,-0.439908 -31.0975,-0.633032 0.01,9.526494 0.056,20.059278 -0.2427,26.315898 -5.3154,-0.26203 -10.6244,-0.50569 -15.9412,-0.72923 0.2377,-5.55898 0.358,-54.624752 -0.051,-67.187094 0.162,9.1e-5 15.7608,0.0096 15.9228,0.0097 0.3255,8.568978 0.3067,20.10428 0.3075,29.479705 10.4173,0.139747 20.6951,0.294278 31.0971,0.458294 0,-9.446502 0.047,-21.166524 -0.3568,-29.915266 0.4325,3.46e-4 15.4885,0.01285 15.921,0.01319 0.5289,10.798288 0.403,65.060111 0.097,70.583331 z"
           style="font-style:normal;font-variant:normal;font-weight:bold;font-stretch:normal;font-family:Roboto;-inkscape-font-specification:'Roboto Bold';fill:#23232a;fill-opacity:1;stroke:none;stroke-width:2.41703;stroke-linecap:round;stroke-linejoin:round;stroke-miterlimit:4;stroke-dasharray:none;stroke-opacity:1;paint-order:normal"
           id="path67-6-89"
           inkscape:original-d="m 1521.1848,122.51364 h -15.9175 V 89.405383 h -31.039 v 33.108257 h -15.9174 V 45.261038 h 15.9174 v 31.304283 h 31.039 V 45.261038 h 15.9175 z" />
        <path
           d="m 1551.0617,117.76872 c 3.7717,0.25555 -19.6849,-1.32809 -15.9133,-1.07254 0.3003,-5.38077 0.4165,-61.452992 -0.096,-71.553279 1.6482,0.0015 14.271,0.01274 15.9193,0.0142 0.474,9.162811 0.3721,67.516809 0.09,72.611629 z"
           style="font-style:normal;font-variant:normal;font-weight:bold;font-stretch:normal;font-family:Roboto;-inkscape-font-specification:'Roboto Bold';fill:#23232a;fill-opacity:1;stroke:none;stroke-width:2.41703;stroke-linecap:round;stroke-linejoin:round;stroke-miterlimit:4;stroke-dasharray:none;stroke-opacity:1;paint-order:normal"
           id="path69-2-2"
           inkscape:original-d="m 1552.0646,122.51364 h -15.9175 V 45.261038 h 15.9175 z" />
        <path
           d="m 1594.3844,71.668261 c 4.3651,-7.927332 10.3139,-18.615021 14.2592,-26.462515 -0.5223,-3.83e-4 18.8237,0.01268 18.3014,0.01229 -4.4828,8.241319 -17.5352,29.981747 -22.3741,38.208096 7.6438,13.01196 15.8272,25.729088 22.9629,38.993628 -6.1597,-0.28282 -12.3276,-0.60102 -18.4879,-0.94414 -3.9572,-7.62506 -10.2931,-18.61931 -14.6611,-26.407785 -4.7575,8.557395 -9.7861,17.357615 -15.0121,24.596345 -6.1536,-0.40101 -12.3448,-0.81571 -18.5009,-1.23137 7.8126,-9.43294 15.9199,-23.054662 23.2197,-35.229395 -6.6079,-11.300857 -15.5305,-27.278691 -22.7201,-38.037019 -2.0707,-0.0018 20.3759,0.01792 18.3052,0.01607 5.0608,8.258984 10.1485,17.903251 14.7078,26.485792 z"
           style="font-style:normal;font-variant:normal;font-weight:bold;font-stretch:normal;font-family:Roboto;-inkscape-font-specification:'Roboto Bold';fill:#23232a;fill-opacity:1;stroke:none;stroke-width:2.41703;stroke-linecap:round;stroke-linejoin:round;stroke-miterlimit:4;stroke-dasharray:none;stroke-opacity:1;paint-order:normal"
           id="path71-9-66"
           inkscape:original-d="m 1595.2539,71.896208 14.4848,-26.63517 h 18.3051 l -22.4967,38.307953 23.0803,38.944649 h -18.5173 l -14.8562,-27.059633 -14.8563,27.059633 h -18.5173 l 23.0803,-38.944649 -22.4966,-38.307953 h 18.305 z" />
      </g>
      <g
         aria-label="CINEPHIX"
         id="text903"
         style="font-style:normal;font-variant:normal;font-weight:normal;font-stretch:normal;font-size:108.663px;line-height:1.25;font-family:Roboto;-inkscape-font-specification:Roboto;letter-spacing:0px;fill:#ff8a00;fill-opacity:1;stroke:none;stroke-width:2.41703;stroke-linecap:round;stroke-linejoin:round;stroke-miterlimit:4;stroke-dasharray:none;stroke-opacity:1;paint-order:normal"
         inkscape:path-effect="#path-effect74"
         transform="matrix(0.53364862,0,0,0.53364862,-754.36129,175.14949)">
        <path
           d="m 1206.6933,95.712284 c -0.6477,7.906656 -3.7466,13.824726 -9.1789,18.279696 -5.3398,4.40591 -12.5965,7.03481 -21.5692,7.64663 -9.9107,0.67577 -17.8585,-1.85891 -23.6205,-8.2773 -5.7216,-6.4488 -8.2296,-15.625429 -8.195,-27.29031 0,-1.580006 0,-3.142879 0,-4.722056 -0.026,-7.42604 1.1332,-13.960713 3.6789,-19.629161 2.5504,-5.679059 6.294,-10.012207 11.244,-13.02835 4.9757,-3.044854 10.7388,-4.53506 17.174,-4.534812 8.9038,3.42e-4 15.9464,2.319535 21.2507,6.938465 5.3068,4.621059 8.4556,11.224527 9.3396,19.814135 0.6322,-0.0084 -16.5034,0.206164 -15.8713,0.197758 -0.418,-4.979908 -1.8269,-8.565666 -4.2267,-10.762986 -2.3644,-2.232845 -5.9753,-3.328414 -10.8468,-3.294136 -5.2953,0.03726 -9.276,1.963901 -11.8901,5.804613 -2.5928,3.825255 -3.8129,9.692352 -3.8548,17.713332 0.01,1.957491 0.01,3.877456 0,5.830147 -0.024,8.354753 1.0993,14.321391 3.5817,18.053121 2.506,3.71374 6.4908,5.41012 11.9256,5.21509 4.8939,-0.17562 8.5584,-1.36328 10.9514,-3.52069 2.4346,-2.19727 3.8533,-5.51101 4.2395,-10.048557 5.2811,-0.118372 10.5792,-0.248098 15.8669,-0.384629 z"
           style="font-style:normal;font-variant:normal;font-weight:bold;font-stretch:normal;font-family:Roboto;-inkscape-font-specification:'Roboto Bold';fill:#ff8a00;fill-opacity:1;stroke:none;stroke-width:2.41703;stroke-linecap:round;stroke-linejoin:round;stroke-miterlimit:4;stroke-dasharray:none;stroke-opacity:1;paint-order:normal"
           id="path57"
           inkscape:original-d="m 1208.248,96.78046 q -0.9019,12.46865 -9.2321,19.6315 -8.277,7.16284 -21.8599,7.16284 -14.8563,0 -23.3986,-9.97492 -8.4893,-10.02798 -8.4893,-27.4841 v -4.722171 q 0,-11.142202 3.9263,-19.6315 3.9263,-8.489297 11.1952,-12.999236 7.3221,-4.562997 16.9786,-4.562997 13.3707,0 21.5416,7.162845 8.171,7.162844 9.4444,20.109022 h -15.9175 q -0.5836,-7.481193 -4.1916,-10.823854 -3.5549,-3.395719 -10.8769,-3.395719 -7.9587,0 -11.938,5.730276 -3.9263,5.677217 -4.0325,17.668349 v 5.836392 q 0,12.521713 3.7672,18.305043 3.8201,5.78334 11.9911,5.78334 7.3751,0 10.983,-3.34266 3.661,-3.39572 4.1916,-10.45245 z" />
        <path
           d="m 1234.2759,116.63516 c -1.2155,0.0841 -14.6858,1.03073 -15.9013,1.11486 -0.2489,-4.49697 -0.3364,-63.932634 0.1341,-72.592583 -2.6099,0.0024 18.5295,-0.0172 15.9197,-0.01477 -0.5079,9.599487 -0.4113,66.741903 -0.1525,71.492483 z"
           style="font-style:normal;font-variant:normal;font-weight:bold;font-stretch:normal;font-family:Roboto;-inkscape-font-specification:'Roboto Bold';fill:#ff8a00;fill-opacity:1;stroke:none;stroke-width:2.41703;stroke-linecap:round;stroke-linejoin:round;stroke-miterlimit:4;stroke-dasharray:none;stroke-opacity:1;paint-order:normal"
           id="path59"
           inkscape:original-d="m 1235.626,122.51364 h -15.9174 V 45.261038 h 15.9174 z" />
        <path
           d="m 1311.8097,112.16128 c -5.3146,0.22026 -10.6204,0.4621 -15.933,0.72399 -10.3104,-9.52526 -21.1665,-26.722972 -31.194,-42.602919 -4e-4,11.964476 -0.1418,37.523529 0.1954,44.334909 -5.3106,0.32793 -10.6058,0.66887 -15.9142,1.02091 -0.2554,-4.8507 -0.3558,-60.242836 0.1646,-70.50872 -0.4583,4.03e-4 16.3797,-0.01396 15.9215,-0.01356 6.7617,10.774401 23.483,37.400357 30.7101,47.678046 0.022,-10.371455 -0.057,-37.314088 0.3386,-47.701116 -0.1479,9.7e-5 16.018,-0.0097 15.8702,-0.0096 -0.3754,11.644747 -0.3088,62.56536 -0.1592,67.07807 z"
           style="font-style:normal;font-variant:normal;font-weight:bold;font-stretch:normal;font-family:Roboto;-inkscape-font-specification:'Roboto Bold';fill:#ff8a00;fill-opacity:1;stroke:none;stroke-width:2.41703;stroke-linecap:round;stroke-linejoin:round;stroke-miterlimit:4;stroke-dasharray:none;stroke-opacity:1;paint-order:normal"
           id="path61"
           inkscape:original-d="m 1313.1439,122.51364 h -15.9174 l -30.9859,-50.829665 v 50.829665 h -15.9175 V 45.261038 h 15.9175 l 31.0389,50.935783 V 45.261038 h 15.8644 z" />
        <path
           d="m 1372.4245,85.471285 c -10.2563,0.02848 -20.4465,0.09449 -30.6986,0.195999 -0.01,5.569425 -0.021,12.756086 -0.013,17.145986 12.0328,-0.20706 23.9835,-0.32693 36.021,-0.3557 -5e-4,0.25301 -0.019,7.94652 -0.02,8.19953 -17.3693,0.0551 -34.5201,0.38629 -51.8785,0.97507 -0.1138,-4.31579 -0.163,-54.876474 0.1465,-66.556019 -0.4535,2.06e-4 52.154,-0.01329 51.7005,-0.01309 0,0.576113 -0.017,10.937015 -0.019,11.513128 -11.9927,0.0065 -23.8993,0.03246 -35.8895,0.07704 -0.03,5.443668 -0.034,11.875284 -0.038,17.427297 10.251,-0.07414 20.4404,-0.122352 30.6952,-0.143166 9e-4,-1.921982 -0.01,13.455897 -0.01,11.533916 z"
           style="font-style:normal;font-variant:normal;font-weight:bold;font-stretch:normal;font-family:Roboto;-inkscape-font-specification:'Roboto Bold';fill:#ff8a00;fill-opacity:1;stroke:none;stroke-width:2.41703;stroke-linecap:round;stroke-linejoin:round;stroke-miterlimit:4;stroke-dasharray:none;stroke-opacity:1;paint-order:normal"
           id="path63"
           inkscape:original-d="m 1373.6302,89.033976 h -30.5615 v 20.692664 h 35.8673 v 12.787 h -51.7847 V 45.261038 h 51.6786 v 12.89312 h -35.7612 v 18.411163 h 30.5615 z" />
        <path
           d="m 1403.1254,91.014396 c -0.01,7.604479 -0.017,14.920834 -0.1028,19.757724 -5.3189,-0.0649 -10.6321,-0.10436 -15.9511,-0.11792 0.07,-8.25795 0.091,-49.578536 0.059,-65.591204 0.1265,4e-6 30.0233,0.0046 30.1499,0.0046 5.7903,0.0016 10.9286,0.907169 15.3421,2.783751 4.4629,1.882556 7.9034,4.610857 10.3117,8.283566 2.4065,3.637302 3.6077,7.871819 3.6119,12.649166 0.01,7.268582 -2.6085,12.858653 -7.8239,16.778407 -5.1677,3.879059 -12.3919,5.638149 -21.5789,5.55398 -4.6742,-0.04282 -9.3431,-0.07694 -14.0181,-0.102067 z m 0,-11.58669 c 4.7633,0.01829 9.5199,0.04331 14.2822,0.07482 4.2259,0.02796 7.4431,-0.865813 9.6437,-2.711989 2.2371,-1.846702 3.3565,-4.521025 3.3541,-8.029619 0,-3.610297 -1.127,-6.520679 -3.3715,-8.727423 -2.2422,-2.204583 -5.3406,-3.329429 -9.2783,-3.406917 0.048,1.45e-4 -14.6904,-0.03509 -14.6424,-0.03495 0.017,6.698145 0.014,16.113541 0.012,22.836077 z"
           style="font-style:normal;font-variant:normal;font-weight:bold;font-stretch:normal;font-family:Roboto;-inkscape-font-specification:'Roboto Bold';fill:#ff8a00;fill-opacity:1;stroke:none;stroke-width:2.41703;stroke-linecap:round;stroke-linejoin:round;stroke-miterlimit:4;stroke-dasharray:none;stroke-opacity:1;paint-order:normal"
           id="path65"
           inkscape:original-d="m 1404.1916,95.294833 v 27.218807 h -15.9174 V 45.261038 h 30.137 q 8.7015,0 15.2807,3.183487 6.6323,3.183486 10.1872,9.072936 3.5549,5.836392 3.5549,13.317585 0,11.354434 -7.7996,17.93364 -7.7464,6.526147 -21.4885,6.526147 z m 0,-12.89312 h 14.2196 q 6.3139,0 9.6035,-2.971254 3.3427,-2.971254 3.3427,-8.489297 0,-5.677218 -3.3427,-9.179053 -3.3426,-3.501835 -9.2321,-3.607951 h -14.591 z" />
        <path
           d="m 1520.1844,115.71322 c -5.3117,-0.34203 -10.6117,-0.67473 -15.9254,-0.99609 0.3645,-6.75914 0.2838,-17.789408 0.2692,-27.399366 -10.4022,-0.226451 -20.6791,-0.439908 -31.0975,-0.633032 0.01,9.526494 0.056,20.059278 -0.2427,26.315898 -5.3154,-0.26203 -10.6244,-0.50569 -15.9412,-0.72923 0.2377,-5.55898 0.358,-54.624752 -0.051,-67.187094 0.162,9.1e-5 15.7608,0.0096 15.9228,0.0097 0.3255,8.568978 0.3067,20.10428 0.3075,29.479705 10.4173,0.139747 20.6951,0.294278 31.0971,0.458294 0,-9.446502 0.047,-21.166524 -0.3568,-29.915266 0.4325,3.46e-4 15.4885,0.01285 15.921,0.01319 0.5289,10.798288 0.403,65.060111 0.097,70.583331 z"
           style="font-style:normal;font-variant:normal;font-weight:bold;font-stretch:normal;font-family:Roboto;-inkscape-font-specification:'Roboto Bold';fill:#ff8a00;fill-opacity:1;stroke:none;stroke-width:2.41703;stroke-linecap:round;stroke-linejoin:round;stroke-miterlimit:4;stroke-dasharray:none;stroke-opacity:1;paint-order:normal"
           id="path67"
           inkscape:original-d="m 1521.1848,122.51364 h -15.9175 V 89.405383 h -31.039 v 33.108257 h -15.9174 V 45.261038 h 15.9174 v 31.304283 h 31.039 V 45.261038 h 15.9175 z" />
        <path
           d="m 1551.0617,117.76872 c 3.7717,0.25555 -19.6849,-1.32809 -15.9133,-1.07254 0.3003,-5.38077 0.4165,-61.452992 -0.096,-71.553279 1.6482,0.0015 14.271,0.01274 15.9193,0.0142 0.474,9.162811 0.3721,67.516809 0.09,72.611629 z"
           style="font-style:normal;font-variant:normal;font-weight:bold;font-stretch:normal;font-family:Roboto;-inkscape-font-specification:'Roboto Bold';fill:#ff8a00;fill-opacity:1;stroke:none;stroke-width:2.41703;stroke-linecap:round;stroke-linejoin:round;stroke-miterlimit:4;stroke-dasharray:none;stroke-opacity:1;paint-order:normal"
           id="path69"
           inkscape:original-d="m 1552.0646,122.51364 h -15.9175 V 45.261038 h 15.9175 z" />
        <path
           d="m 1594.3844,71.668261 c 4.3651,-7.927332 10.3139,-18.615021 14.2592,-26.462515 -0.5223,-3.83e-4 18.8237,0.01268 18.3014,0.01229 -4.4828,8.241319 -17.5352,29.981747 -22.3741,38.208096 7.6438,13.01196 15.8272,25.729088 22.9629,38.993628 -6.1597,-0.28282 -12.3276,-0.60102 -18.4879,-0.94414 -3.9572,-7.62506 -10.2931,-18.61931 -14.6611,-26.407785 -4.7575,8.557395 -9.7861,17.357615 -15.0121,24.596345 -6.1536,-0.40101 -12.3448,-0.81571 -18.5009,-1.23137 7.8126,-9.43294 15.9199,-23.054662 23.2197,-35.229395 -6.6079,-11.300857 -15.5305,-27.278691 -22.7201,-38.037019 -2.0707,-0.0018 20.3759,0.01792 18.3052,0.01607 5.0608,8.258984 10.1485,17.903251 14.7078,26.485792 z"
           style="font-style:normal;font-variant:normal;font-weight:bold;font-stretch:normal;font-family:Roboto;-inkscape-font-specification:'Roboto Bold';fill:#ff8a00;fill-opacity:1;stroke:none;stroke-width:2.41703;stroke-linecap:round;stroke-linejoin:round;stroke-miterlimit:4;stroke-dasharray:none;stroke-opacity:1;paint-order:normal"
           id="path71"
           inkscape:original-d="m 1595.2539,71.896208 14.4848,-26.63517 h 18.3051 l -22.4967,38.307953 23.0803,38.944649 h -18.5173 l -14.8562,-27.059633 -14.8563,27.059633 h -18.5173 l 23.0803,-38.944649 -22.4966,-38.307953 h 18.305 z" />
      </g>
    </g>
  </g>
</svg>
